<?xml version="1.0" encoding="UTF-8" standalone="no" ?>
<!DOCTYPE svg PUBLIC "-//W3C//DTD SVG 1.1//EN" "http://www.w3.org/Graphics/SVG/1.1/DTD/svg11.dtd">
<svg xmlns="http://www.w3.org/2000/svg" xmlns:xlink="http://www.w3.org/1999/xlink" version="1.1" width="40px" height="40px" viewBox="0 0 350 350" xml:space="preserve">
<desc>Created with Fabric.js 1.7.22</desc>
<defs>
</defs>
<g id="icon" style="stroke: none; stroke-width: 1; stroke-dasharray: none; stroke-linecap: butt; stroke-linejoin: miter; stroke-miterlimit: 10; fill: none; fill-rule: nonzero; opacity: 0.5;" transform="translate(-1.9444444444444287 -1.9444444444444287) scale(3.89 3.89)" >
	<path d="M 89.034 43.825 L 74.452 27.423 c -0.725 -0.816 -1.767 -1.284 -2.859 -1.284 H 58.256 v -0.448 c 0 -3.723 -3.029 -6.752 -6.751 -6.752 H 6.752 C 3.029 18.94 0 21.969 0 25.692 v 35.098 c 0 2.219 1.805 4.024 4.023 4.024 h 10.374 c 0.827 3.573 4.029 6.247 7.85 6.247 s 7.023 -2.674 7.85 -6.247 h 25.193 h 2.967 h 10.701 c 0.827 3.573 4.029 6.247 7.85 6.247 s 7.023 -2.674 7.85 -6.247 h 1.519 c 2.109 0 3.825 -1.715 3.825 -3.825 V 46.367 C 90 45.43 89.657 44.527 89.034 43.825 z M 85.213 43.993 H 67.936 c -0.336 0 -0.609 -0.274 -0.609 -0.61 v -7.785 c 0 -0.336 0.273 -0.609 0.609 -0.609 h 9.272 L 85.213 43.993 z M 6.752 21.907 h 44.753 c 2.086 0 3.784 1.698 3.784 3.785 v 0.448 v 22.322 H 2.967 v -22.77 C 2.967 23.605 4.665 21.907 6.752 21.907 z M 22.246 68.093 c -2.81 0 -5.097 -2.286 -5.097 -5.097 s 2.287 -5.097 5.097 -5.097 s 5.097 2.286 5.097 5.097 S 25.057 68.093 22.246 68.093 z M 30.218 61.846 c -0.561 -3.902 -3.917 -6.913 -7.972 -6.913 s -7.411 3.011 -7.972 6.913 H 4.023 c -0.582 0 -1.056 -0.474 -1.056 -1.057 v -9.361 h 52.322 v 10.417 H 30.218 z M 76.807 68.093 c -2.811 0 -5.097 -2.286 -5.097 -5.097 s 2.286 -5.097 5.097 -5.097 s 5.097 2.286 5.097 5.097 S 79.617 68.093 76.807 68.093 z M 86.175 61.846 h -1.397 c -0.561 -3.902 -3.917 -6.913 -7.972 -6.913 s -7.411 3.011 -7.972 6.913 H 58.256 v -32.74 h 13.337 c 0.244 0 0.478 0.105 0.641 0.288 l 2.335 2.627 h -6.634 c -1.972 0 -3.576 1.604 -3.576 3.576 v 7.785 c 0 1.972 1.604 3.577 3.576 3.577 h 19.097 v 14.029 C 87.033 61.462 86.649 61.846 86.175 61.846 z" style="stroke: none; stroke-width: 1; stroke-dasharray: none; stroke-linecap: butt; stroke-linejoin: miter; stroke-miterlimit: 10; fill: rgb(0,0,0); fill-rule: nonzero; opacity: 1;" transform=" matrix(1 0 0 1 0 0) " stroke-linecap="round" />
</g>
</svg>
